<svg width="65" height="16" viewBox="0 0 65 16" fill="none" xmlns="http://www.w3.org/2000/svg">
<path d="M8.36536 1.344C8.03865 1.15362 7.10214 1.27133 5.97734 1.63688C4.00879 3.04956 2.34738 5.1308 2.23144 8.47293C2.21033 8.55284 2.01616 8.46206 1.97776 8.43734C1.44618 7.36765 1.23557 6.24128 1.67943 4.6164C1.76216 4.47179 1.49168 4.29377 1.44305 4.34462C1.34562 4.44707 0.939475 4.9013 0.669724 5.39253C-0.66738 7.82768 0.207027 10.9479 2.54637 12.3134C4.88523 13.681 7.83868 12.7988 9.14096 10.3426C10.6475 7.5077 9.24861 1.8619 8.3654 1.34408L8.36536 1.344Z" fill="#6DBC2E"/>
<path d="M16.7373 2.70459C13.9641 2.70459 11.9512 4.86903 11.9512 7.85123C11.9512 10.8579 13.9589 12.9578 16.8339 12.9578C18.2861 12.9578 19.4358 12.4811 20.3501 11.4997C20.6232 11.1901 20.6526 10.8918 20.6526 10.7777C20.6526 10.2916 20.3083 9.93844 19.8338 9.93844C19.5946 9.93844 19.3946 10.0333 19.1651 10.256C18.6474 10.7625 17.9656 11.2799 16.8339 11.2799C15.2602 11.2799 13.9804 10.0395 13.8998 8.44653H20.1631C20.8442 8.44653 21.175 8.11223 21.175 7.42479C21.175 7.22239 21.175 7.07634 21.1363 6.78819C20.7988 4.23132 19.1546 2.70493 16.7374 2.70493L16.7373 2.70459ZM16.7373 4.30113C18.241 4.30113 19.2059 5.30723 19.2655 6.93105H13.9017C14.0425 5.42823 15.2528 4.30113 16.7372 4.30113H16.7373Z" fill="white"/>
<path d="M27.1558 2.70459C25.896 2.70459 24.6487 3.46508 24.1614 4.5213V3.86855C24.1614 2.85734 23.4149 2.80611 23.2654 2.80611C22.8231 2.80611 22.3503 3.08518 22.3503 3.86855V11.7526C22.3503 12.8027 23.1449 12.8557 23.3042 12.8557C23.4634 12.8557 24.2583 12.8027 24.2583 11.7526V7.52618C24.2583 5.68726 25.2509 4.40286 26.672 4.40286C28.0484 4.40286 28.7177 5.35117 28.7177 7.30235V11.7526C28.7177 12.8027 29.5126 12.8557 29.6719 12.8557C29.8311 12.8557 30.6257 12.8027 30.6257 11.7526V6.67329C30.6257 4.75481 29.7141 2.70519 27.1558 2.70519V2.70459Z" fill="white"/>
<path d="M39.2586 2.80615C38.8177 2.80615 38.4979 3.07614 38.3076 3.60734L35.6972 10.4988L33.1067 3.60734C32.9039 3.06817 32.5865 2.80615 32.1363 2.80615C31.6102 2.80615 31.1821 3.23707 31.1821 3.76686C31.1821 3.898 31.1963 4.06805 31.3019 4.33365L34.3018 11.7702C34.6593 12.6673 35.2473 12.8556 35.6778 12.8556C36.108 12.8556 36.6963 12.6673 37.0545 11.7706L40.0739 4.29274C40.1771 4.03042 40.1931 3.83782 40.1931 3.74666C40.1931 3.21073 39.7909 2.80628 39.2586 2.80628V2.80615Z" fill="white"/>
<path d="M44.8046 2.70461C43.5843 2.70461 42.4478 3.06142 41.6047 3.70854C41.3188 3.91563 41.1797 4.17398 41.1797 4.49882C41.1797 4.9461 41.505 5.29673 41.9211 5.29673C42.101 5.29673 42.3024 5.22151 42.4872 5.0856C43.212 4.57839 43.8931 4.34186 44.6302 4.34186C46.0409 4.34186 46.8507 5.09506 46.8507 6.40857V6.62622C43.684 6.62984 40.4631 7.03136 40.4631 9.92359C40.4631 12.0052 42.1576 12.9372 43.8368 12.9372C45.1741 12.9372 46.2421 12.3809 46.9273 11.3275V11.834C46.9273 12.5883 47.4098 12.8558 47.8238 12.8558C47.9109 12.8558 48.6806 12.8271 48.6806 11.834V6.53012C48.6806 4.13422 47.2313 2.7041 44.8045 2.7041L44.8046 2.70461ZM46.4493 8.101H46.8507V8.56243C46.8507 10.2502 45.827 11.3406 44.2433 11.3406C43.8135 11.3406 42.4105 11.2356 42.4105 9.88285C42.4104 8.28558 44.7154 8.101 46.4493 8.101V8.101Z" fill="white"/>
<path d="M53.6502 4.62636C54.485 4.62636 54.5272 3.94437 54.5272 3.80774C54.5272 3.40222 54.2967 2.96875 53.6502 2.96875H51.9337V1.14586C51.9337 0.331594 51.4305 0.0427246 50.9992 0.0427246C50.84 0.0427246 50.0454 0.0957848 50.0454 1.14586V9.80213C50.0454 11.7998 50.984 12.8557 52.7601 12.8557C53.2197 12.8557 53.6676 12.7703 53.9603 12.6271C54.2961 12.4513 54.4885 12.162 54.4885 11.8339C54.4885 11.371 54.1687 11.0353 53.7278 11.0353C53.6426 11.0353 53.5215 11.0575 53.3879 11.0978C53.2246 11.1407 53.1138 11.1574 52.9927 11.1574C52.2701 11.1574 51.9337 10.6622 51.9337 9.59867V4.6255H53.6502V4.62636Z" fill="white"/>
<path d="M59.9586 2.70459C57.0729 2.70459 54.9792 4.85198 54.9792 7.81032C54.9792 9.25066 55.4866 10.5634 56.4072 11.5066C57.3209 12.4422 58.582 12.9575 59.9587 12.9575C62.8084 12.9575 64.9575 10.7447 64.9575 7.8104C64.9575 4.85202 62.8547 2.70468 59.9587 2.70468L59.9586 2.70459ZM59.9586 11.259C57.9797 11.259 56.9448 9.52402 56.9448 7.81011C56.9448 5.45491 58.5071 4.38232 59.9586 4.38232C61.4101 4.38232 62.9723 5.45491 62.9723 7.81011C62.9723 10.1799 61.4101 11.259 59.9586 11.259Z" fill="white"/>
</svg>
