<?xml version="1.0" encoding="UTF-8"?> <svg xmlns="http://www.w3.org/2000/svg" width="81" height="42" viewBox="0 0 81 42" fill="none"><mask id="path-1-outside-1_567_3" maskUnits="userSpaceOnUse" x="0" y="0" width="81" height="42" fill="black"><rect fill="white" width="81" height="42"></rect><path d="M8.01119 19.5533C6.78295 19.5533 5.67413 19.2745 4.68471 18.7169C3.71236 18.1593 2.93618 17.3905 2.35618 16.4104C1.79324 15.4135 1.51177 14.2644 1.51177 12.9633C1.51177 11.6622 1.80177 10.5217 2.38177 9.54163C2.96177 8.54468 3.73795 7.7674 4.7103 7.20979C5.69971 6.65217 6.80854 6.37337 8.03678 6.37337C9.24796 6.37337 10.3397 6.65217 11.3121 7.20979C12.3015 7.7674 13.0777 8.54468 13.6406 9.54163C14.2206 10.5217 14.5106 11.6622 14.5106 12.9633C14.5106 14.2644 14.2206 15.4135 13.6406 16.4104C13.0777 17.3905 12.3015 18.1593 11.3121 18.7169C10.3227 19.2745 9.22237 19.5533 8.01119 19.5533ZM8.01119 16.7399C8.86413 16.7399 9.60619 16.4273 10.2374 15.8021C10.8685 15.16 11.1841 14.2138 11.1841 12.9633C11.1841 11.7129 10.8685 10.7751 10.2374 10.1499C9.60619 9.50783 8.87266 9.18678 8.03678 9.18678C7.16678 9.18678 6.41619 9.50783 5.78501 10.1499C5.17089 10.7751 4.86383 11.7129 4.86383 12.9633C4.86383 14.2138 5.17089 15.16 5.78501 15.8021C6.41619 16.4273 7.15825 16.7399 8.01119 16.7399Z"></path><path d="M16.1597 19.2492V1H19.435V8.60382C19.8614 7.91103 20.4329 7.37031 21.1494 6.98167C21.8829 6.57614 22.7188 6.37337 23.657 6.37337C25.2264 6.37337 26.4376 6.86339 27.2906 7.84344C28.1606 8.82349 28.5956 10.2598 28.5956 12.1523V19.2492H25.3458V12.4564C25.3458 11.375 25.1241 10.547 24.6806 9.97251C24.2541 9.398 23.5717 9.11074 22.6335 9.11074C21.7123 9.11074 20.9447 9.43179 20.3305 10.0739C19.7335 10.716 19.435 11.6116 19.435 12.7606V19.2492H16.1597Z"></path><path d="M32.2137 4.72587C31.6166 4.72587 31.1219 4.54845 30.7296 4.1936C30.3543 3.83876 30.1666 3.39098 30.1666 2.85026C30.1666 2.30955 30.3543 1.87021 30.7296 1.53227C31.1219 1.17742 31.6166 1 32.2137 1C32.8108 1 33.2969 1.17742 33.6722 1.53227C34.0646 1.87021 34.2608 2.30955 34.2608 2.85026C34.2608 3.39098 34.0646 3.83876 33.6722 4.1936C33.2969 4.54845 32.8108 4.72587 32.2137 4.72587ZM30.5761 19.2492V6.67752H33.8513V19.2492H30.5761Z"></path><path d="M42.0806 19.5533C40.8523 19.5533 39.7435 19.2745 38.7541 18.7169C37.7817 18.1593 37.0056 17.3905 36.4256 16.4104C35.8626 15.4135 35.5812 14.2644 35.5812 12.9633C35.5812 11.6622 35.8712 10.5217 36.4512 9.54163C37.0312 8.54468 37.8073 7.7674 38.7797 7.20979C39.7691 6.65217 40.8779 6.37337 42.1062 6.37337C43.3173 6.37337 44.4091 6.65217 45.3815 7.20979C46.3709 7.7674 47.1471 8.54468 47.71 9.54163C48.29 10.5217 48.58 11.6622 48.58 12.9633C48.58 14.2644 48.29 15.4135 47.71 16.4104C47.1471 17.3905 46.3709 18.1593 45.3815 18.7169C44.3921 19.2745 43.2918 19.5533 42.0806 19.5533ZM42.0806 16.7399C42.9335 16.7399 43.6756 16.4273 44.3068 15.8021C44.9379 15.16 45.2535 14.2138 45.2535 12.9633C45.2535 11.7129 44.9379 10.7751 44.3068 10.1499C43.6756 9.50783 42.942 9.18678 42.1062 9.18678C41.2362 9.18678 40.4856 9.50783 39.8544 10.1499C39.2403 10.7751 38.9332 11.7129 38.9332 12.9633C38.9332 14.2138 39.2403 15.16 39.8544 15.8021C40.4856 16.4273 41.2276 16.7399 42.0806 16.7399Z"></path><path d="M7.57619 40.6958C6.2456 40.6958 5.17942 40.3748 4.37765 39.7327C3.57589 39.0906 3.175 37.95 3.175 36.311V30.8362H1V28.1242H3.175L3.55883 24.7532H6.4503V28.1242H9.87913V30.8362H6.4503V36.3363C6.4503 36.9446 6.57824 37.3671 6.83413 37.6036C7.10707 37.8233 7.56766 37.9331 8.21589 37.9331H9.80237V40.6958H7.57619Z"></path><path d="M11.4118 40.6958V22.4467H14.6871V30.0505C15.1136 29.3577 15.6851 28.817 16.4015 28.4283C17.1351 28.0228 17.971 27.82 18.9092 27.82C20.4786 27.82 21.6898 28.3101 22.5427 29.2901C23.4127 30.2702 23.8477 31.7064 23.8477 33.5989V40.6958H20.598V33.9031C20.598 32.8217 20.3763 31.9937 19.9327 31.4192C19.5063 30.8447 18.8239 30.5574 17.8857 30.5574C16.9645 30.5574 16.1968 30.8785 15.5827 31.5206C14.9857 32.1627 14.6871 33.0582 14.6871 34.2073V40.6958H11.4118Z"></path><path d="M31.8671 41C30.5876 41 29.4532 40.7296 28.4638 40.1889C27.4744 39.6482 26.6982 38.8878 26.1353 37.9078C25.5723 36.9277 25.2909 35.7956 25.2909 34.5114C25.2909 33.2103 25.5638 32.0528 26.1097 31.039C26.6726 30.0251 27.4403 29.2394 28.4126 28.6818C29.4021 28.1073 30.5621 27.82 31.8926 27.82C33.1379 27.82 34.2382 28.0904 35.1935 28.6311C36.1488 29.1718 36.8909 29.9153 37.4197 30.8616C37.9656 31.7909 38.2385 32.8301 38.2385 33.9791C38.2385 34.165 38.23 34.3593 38.213 34.5621C38.213 34.7649 38.2044 34.9761 38.1874 35.1958H28.5406C28.6088 36.1758 28.95 36.9446 29.5641 37.5022C30.1953 38.0599 30.9544 38.3387 31.8415 38.3387C32.5068 38.3387 33.0612 38.195 33.5047 37.9078C33.9653 37.6036 34.3065 37.215 34.5282 36.7419H37.8547C37.6159 37.536 37.215 38.2626 36.6521 38.9216C36.1062 39.5637 35.4238 40.0706 34.605 40.4424C33.8032 40.8141 32.8906 41 31.8671 41ZM31.8926 30.456C31.0909 30.456 30.3829 30.6841 29.7688 31.1404C29.1547 31.5797 28.7623 32.2556 28.5918 33.1681H34.9121C34.8609 32.3401 34.5538 31.6811 33.9909 31.1911C33.4279 30.701 32.7285 30.456 31.8926 30.456Z"></path><path d="M39.7139 40.6958V28.1242H42.6053L42.8868 29.8224C43.2962 29.2141 43.8336 28.7325 44.4989 28.3777C45.1812 28.0059 45.9659 27.82 46.853 27.82C48.8148 27.82 50.2051 28.572 51.0239 30.0758C51.4845 29.3831 52.0986 28.8339 52.8662 28.4283C53.6509 28.0228 54.5039 27.82 55.4251 27.82C57.0798 27.82 58.3507 28.3101 59.2377 29.2901C60.1248 30.2702 60.5683 31.7064 60.5683 33.5989V40.6958H57.293V33.9031C57.293 32.8217 57.0798 31.9937 56.6533 31.4192C56.2439 30.8447 55.6042 30.5574 54.7342 30.5574C53.8471 30.5574 53.1307 30.8785 52.5848 31.5206C52.0559 32.1627 51.7915 33.0582 51.7915 34.2073V40.6958H48.5162V33.9031C48.5162 32.8217 48.303 31.9937 47.8765 31.4192C47.4501 30.8447 46.7933 30.5574 45.9062 30.5574C45.0362 30.5574 44.3283 30.8785 43.7824 31.5206C43.2536 32.1627 42.9892 33.0582 42.9892 34.2073V40.6958H39.7139Z"></path><path d="M68.5652 41C67.2858 41 66.1514 40.7296 65.162 40.1889C64.1726 39.6482 63.3964 38.8878 62.8335 37.9078C62.2705 36.9277 61.9891 35.7956 61.9891 34.5114C61.9891 33.2103 62.262 32.0528 62.8079 31.039C63.3708 30.0251 64.1385 29.2394 65.1108 28.6818C66.1002 28.1073 67.2602 27.82 68.5908 27.82C69.8361 27.82 70.9364 28.0904 71.8917 28.6311C72.847 29.1718 73.5891 29.9153 74.1179 30.8616C74.6638 31.7909 74.9367 32.8301 74.9367 33.9791C74.9367 34.165 74.9282 34.3593 74.9111 34.5621C74.9111 34.7649 74.9026 34.9761 74.8856 35.1958H65.2388C65.307 36.1758 65.6482 36.9446 66.2623 37.5022C66.8935 38.0599 67.6526 38.3387 68.5397 38.3387C69.205 38.3387 69.7594 38.195 70.2029 37.9078C70.6635 37.6036 71.0047 37.215 71.2264 36.7419H74.5529C74.3141 37.536 73.9132 38.2626 73.3503 38.9216C72.8044 39.5637 72.122 40.0706 71.3032 40.4424C70.5014 40.8141 69.5888 41 68.5652 41ZM68.5908 30.456C67.7891 30.456 67.0811 30.6841 66.467 31.1404C65.8529 31.5797 65.4605 32.2556 65.29 33.1681H71.6103C71.5591 32.3401 71.252 31.6811 70.6891 31.1911C70.1261 30.701 69.4267 30.456 68.5908 30.456Z"></path><path d="M77.8194 40.8733C77.2224 40.8733 76.7276 40.6874 76.3353 40.3157C75.96 39.9439 75.7723 39.4961 75.7723 38.9723C75.7723 38.4316 75.96 37.9754 76.3353 37.6036C76.7276 37.2319 77.2224 37.046 77.8194 37.046C78.4165 37.046 78.9026 37.2319 79.2779 37.6036C79.6703 37.9754 79.8665 38.4316 79.8665 38.9723C79.8665 39.4961 79.6703 39.9439 79.2779 40.3157C78.9026 40.6874 78.4165 40.8733 77.8194 40.8733Z"></path></mask><path d="M8.01119 19.5533C6.78295 19.5533 5.67413 19.2745 4.68471 18.7169C3.71236 18.1593 2.93618 17.3905 2.35618 16.4104C1.79324 15.4135 1.51177 14.2644 1.51177 12.9633C1.51177 11.6622 1.80177 10.5217 2.38177 9.54163C2.96177 8.54468 3.73795 7.7674 4.7103 7.20979C5.69971 6.65217 6.80854 6.37337 8.03678 6.37337C9.24796 6.37337 10.3397 6.65217 11.3121 7.20979C12.3015 7.7674 13.0777 8.54468 13.6406 9.54163C14.2206 10.5217 14.5106 11.6622 14.5106 12.9633C14.5106 14.2644 14.2206 15.4135 13.6406 16.4104C13.0777 17.3905 12.3015 18.1593 11.3121 18.7169C10.3227 19.2745 9.22237 19.5533 8.01119 19.5533ZM8.01119 16.7399C8.86413 16.7399 9.60619 16.4273 10.2374 15.8021C10.8685 15.16 11.1841 14.2138 11.1841 12.9633C11.1841 11.7129 10.8685 10.7751 10.2374 10.1499C9.60619 9.50783 8.87266 9.18678 8.03678 9.18678C7.16678 9.18678 6.41619 9.50783 5.78501 10.1499C5.17089 10.7751 4.86383 11.7129 4.86383 12.9633C4.86383 14.2138 5.17089 15.16 5.78501 15.8021C6.41619 16.4273 7.15825 16.7399 8.01119 16.7399Z" fill="url(#paint0_linear_567_3)"></path><path d="M16.1597 19.2492V1H19.435V8.60382C19.8614 7.91103 20.4329 7.37031 21.1494 6.98167C21.8829 6.57614 22.7188 6.37337 23.657 6.37337C25.2264 6.37337 26.4376 6.86339 27.2906 7.84344C28.1606 8.82349 28.5956 10.2598 28.5956 12.1523V19.2492H25.3458V12.4564C25.3458 11.375 25.1241 10.547 24.6806 9.97251C24.2541 9.398 23.5717 9.11074 22.6335 9.11074C21.7123 9.11074 20.9447 9.43179 20.3305 10.0739C19.7335 10.716 19.435 11.6116 19.435 12.7606V19.2492H16.1597Z" fill="url(#paint1_linear_567_3)"></path><path d="M32.2137 4.72587C31.6166 4.72587 31.1219 4.54845 30.7296 4.1936C30.3543 3.83876 30.1666 3.39098 30.1666 2.85026C30.1666 2.30955 30.3543 1.87021 30.7296 1.53227C31.1219 1.17742 31.6166 1 32.2137 1C32.8108 1 33.2969 1.17742 33.6722 1.53227C34.0646 1.87021 34.2608 2.30955 34.2608 2.85026C34.2608 3.39098 34.0646 3.83876 33.6722 4.1936C33.2969 4.54845 32.8108 4.72587 32.2137 4.72587ZM30.5761 19.2492V6.67752H33.8513V19.2492H30.5761Z" fill="url(#paint2_linear_567_3)"></path><path d="M42.0806 19.5533C40.8523 19.5533 39.7435 19.2745 38.7541 18.7169C37.7817 18.1593 37.0056 17.3905 36.4256 16.4104C35.8626 15.4135 35.5812 14.2644 35.5812 12.9633C35.5812 11.6622 35.8712 10.5217 36.4512 9.54163C37.0312 8.54468 37.8073 7.7674 38.7797 7.20979C39.7691 6.65217 40.8779 6.37337 42.1062 6.37337C43.3173 6.37337 44.4091 6.65217 45.3815 7.20979C46.3709 7.7674 47.1471 8.54468 47.71 9.54163C48.29 10.5217 48.58 11.6622 48.58 12.9633C48.58 14.2644 48.29 15.4135 47.71 16.4104C47.1471 17.3905 46.3709 18.1593 45.3815 18.7169C44.3921 19.2745 43.2918 19.5533 42.0806 19.5533ZM42.0806 16.7399C42.9335 16.7399 43.6756 16.4273 44.3068 15.8021C44.9379 15.16 45.2535 14.2138 45.2535 12.9633C45.2535 11.7129 44.9379 10.7751 44.3068 10.1499C43.6756 9.50783 42.942 9.18678 42.1062 9.18678C41.2362 9.18678 40.4856 9.50783 39.8544 10.1499C39.2403 10.7751 38.9332 11.7129 38.9332 12.9633C38.9332 14.2138 39.2403 15.16 39.8544 15.8021C40.4856 16.4273 41.2276 16.7399 42.0806 16.7399Z" fill="url(#paint3_linear_567_3)"></path><path d="M7.57619 40.6958C6.2456 40.6958 5.17942 40.3748 4.37765 39.7327C3.57589 39.0906 3.175 37.95 3.175 36.311V30.8362H1V28.1242H3.175L3.55883 24.7532H6.4503V28.1242H9.87913V30.8362H6.4503V36.3363C6.4503 36.9446 6.57824 37.3671 6.83413 37.6036C7.10707 37.8233 7.56766 37.9331 8.21589 37.9331H9.80237V40.6958H7.57619Z" fill="url(#paint4_linear_567_3)"></path><path d="M11.4118 40.6958V22.4467H14.6871V30.0505C15.1136 29.3577 15.6851 28.817 16.4015 28.4283C17.1351 28.0228 17.971 27.82 18.9092 27.82C20.4786 27.82 21.6898 28.3101 22.5427 29.2901C23.4127 30.2702 23.8477 31.7064 23.8477 33.5989V40.6958H20.598V33.9031C20.598 32.8217 20.3763 31.9937 19.9327 31.4192C19.5063 30.8447 18.8239 30.5574 17.8857 30.5574C16.9645 30.5574 16.1968 30.8785 15.5827 31.5206C14.9857 32.1627 14.6871 33.0582 14.6871 34.2073V40.6958H11.4118Z" fill="url(#paint5_linear_567_3)"></path><path d="M31.8671 41C30.5876 41 29.4532 40.7296 28.4638 40.1889C27.4744 39.6482 26.6982 38.8878 26.1353 37.9078C25.5723 36.9277 25.2909 35.7956 25.2909 34.5114C25.2909 33.2103 25.5638 32.0528 26.1097 31.039C26.6726 30.0251 27.4403 29.2394 28.4126 28.6818C29.4021 28.1073 30.5621 27.82 31.8926 27.82C33.1379 27.82 34.2382 28.0904 35.1935 28.6311C36.1488 29.1718 36.8909 29.9153 37.4197 30.8616C37.9656 31.7909 38.2385 32.8301 38.2385 33.9791C38.2385 34.165 38.23 34.3593 38.213 34.5621C38.213 34.7649 38.2044 34.9761 38.1874 35.1958H28.5406C28.6088 36.1758 28.95 36.9446 29.5641 37.5022C30.1953 38.0599 30.9544 38.3387 31.8415 38.3387C32.5068 38.3387 33.0612 38.195 33.5047 37.9078C33.9653 37.6036 34.3065 37.215 34.5282 36.7419H37.8547C37.6159 37.536 37.215 38.2626 36.6521 38.9216C36.1062 39.5637 35.4238 40.0706 34.605 40.4424C33.8032 40.8141 32.8906 41 31.8671 41ZM31.8926 30.456C31.0909 30.456 30.3829 30.6841 29.7688 31.1404C29.1547 31.5797 28.7623 32.2556 28.5918 33.1681H34.9121C34.8609 32.3401 34.5538 31.6811 33.9909 31.1911C33.4279 30.701 32.7285 30.456 31.8926 30.456Z" fill="url(#paint6_linear_567_3)"></path><path d="M39.7139 40.6958V28.1242H42.6053L42.8868 29.8224C43.2962 29.2141 43.8336 28.7325 44.4989 28.3777C45.1812 28.0059 45.9659 27.82 46.853 27.82C48.8148 27.82 50.2051 28.572 51.0239 30.0758C51.4845 29.3831 52.0986 28.8339 52.8662 28.4283C53.6509 28.0228 54.5039 27.82 55.4251 27.82C57.0798 27.82 58.3507 28.3101 59.2377 29.2901C60.1248 30.2702 60.5683 31.7064 60.5683 33.5989V40.6958H57.293V33.9031C57.293 32.8217 57.0798 31.9937 56.6533 31.4192C56.2439 30.8447 55.6042 30.5574 54.7342 30.5574C53.8471 30.5574 53.1307 30.8785 52.5848 31.5206C52.0559 32.1627 51.7915 33.0582 51.7915 34.2073V40.6958H48.5162V33.9031C48.5162 32.8217 48.303 31.9937 47.8765 31.4192C47.4501 30.8447 46.7933 30.5574 45.9062 30.5574C45.0362 30.5574 44.3283 30.8785 43.7824 31.5206C43.2536 32.1627 42.9892 33.0582 42.9892 34.2073V40.6958H39.7139Z" fill="url(#paint7_linear_567_3)"></path><path d="M68.5652 41C67.2858 41 66.1514 40.7296 65.162 40.1889C64.1726 39.6482 63.3964 38.8878 62.8335 37.9078C62.2705 36.9277 61.9891 35.7956 61.9891 34.5114C61.9891 33.2103 62.262 32.0528 62.8079 31.039C63.3708 30.0251 64.1385 29.2394 65.1108 28.6818C66.1002 28.1073 67.2602 27.82 68.5908 27.82C69.8361 27.82 70.9364 28.0904 71.8917 28.6311C72.847 29.1718 73.5891 29.9153 74.1179 30.8616C74.6638 31.7909 74.9367 32.8301 74.9367 33.9791C74.9367 34.165 74.9282 34.3593 74.9111 34.5621C74.9111 34.7649 74.9026 34.9761 74.8856 35.1958H65.2388C65.307 36.1758 65.6482 36.9446 66.2623 37.5022C66.8935 38.0599 67.6526 38.3387 68.5397 38.3387C69.205 38.3387 69.7594 38.195 70.2029 37.9078C70.6635 37.6036 71.0047 37.215 71.2264 36.7419H74.5529C74.3141 37.536 73.9132 38.2626 73.3503 38.9216C72.8044 39.5637 72.122 40.0706 71.3032 40.4424C70.5014 40.8141 69.5888 41 68.5652 41ZM68.5908 30.456C67.7891 30.456 67.0811 30.6841 66.467 31.1404C65.8529 31.5797 65.4605 32.2556 65.29 33.1681H71.6103C71.5591 32.3401 71.252 31.6811 70.6891 31.1911C70.1261 30.701 69.4267 30.456 68.5908 30.456Z" fill="url(#paint8_linear_567_3)"></path><path d="M77.8194 40.8733C77.2224 40.8733 76.7276 40.6874 76.3353 40.3157C75.96 39.9439 75.7723 39.4961 75.7723 38.9723C75.7723 38.4316 75.96 37.9754 76.3353 37.6036C76.7276 37.2319 77.2224 37.046 77.8194 37.046C78.4165 37.046 78.9026 37.2319 79.2779 37.6036C79.6703 37.9754 79.8665 38.4316 79.8665 38.9723C79.8665 39.4961 79.6703 39.9439 79.2779 40.3157C78.9026 40.6874 78.4165 40.8733 77.8194 40.8733Z" fill="url(#paint9_linear_567_3)"></path><path d="M8.01119 19.5533C6.78295 19.5533 5.67413 19.2745 4.68471 18.7169C3.71236 18.1593 2.93618 17.3905 2.35618 16.4104C1.79324 15.4135 1.51177 14.2644 1.51177 12.9633C1.51177 11.6622 1.80177 10.5217 2.38177 9.54163C2.96177 8.54468 3.73795 7.7674 4.7103 7.20979C5.69971 6.65217 6.80854 6.37337 8.03678 6.37337C9.24796 6.37337 10.3397 6.65217 11.3121 7.20979C12.3015 7.7674 13.0777 8.54468 13.6406 9.54163C14.2206 10.5217 14.5106 11.6622 14.5106 12.9633C14.5106 14.2644 14.2206 15.4135 13.6406 16.4104C13.0777 17.3905 12.3015 18.1593 11.3121 18.7169C10.3227 19.2745 9.22237 19.5533 8.01119 19.5533ZM8.01119 16.7399C8.86413 16.7399 9.60619 16.4273 10.2374 15.8021C10.8685 15.16 11.1841 14.2138 11.1841 12.9633C11.1841 11.7129 10.8685 10.7751 10.2374 10.1499C9.60619 9.50783 8.87266 9.18678 8.03678 9.18678C7.16678 9.18678 6.41619 9.50783 5.78501 10.1499C5.17089 10.7751 4.86383 11.7129 4.86383 12.9633C4.86383 14.2138 5.17089 15.16 5.78501 15.8021C6.41619 16.4273 7.15825 16.7399 8.01119 16.7399Z" stroke="url(#paint10_linear_567_3)" stroke-width="0.8" mask="url(#path-1-outside-1_567_3)"></path><path d="M16.1597 19.2492V1H19.435V8.60382C19.8614 7.91103 20.4329 7.37031 21.1494 6.98167C21.8829 6.57614 22.7188 6.37337 23.657 6.37337C25.2264 6.37337 26.4376 6.86339 27.2906 7.84344C28.1606 8.82349 28.5956 10.2598 28.5956 12.1523V19.2492H25.3458V12.4564C25.3458 11.375 25.1241 10.547 24.6806 9.97251C24.2541 9.398 23.5717 9.11074 22.6335 9.11074C21.7123 9.11074 20.9447 9.43179 20.3305 10.0739C19.7335 10.716 19.435 11.6116 19.435 12.7606V19.2492H16.1597Z" stroke="url(#paint11_linear_567_3)" stroke-width="0.8" mask="url(#path-1-outside-1_567_3)"></path><path d="M32.2137 4.72587C31.6166 4.72587 31.1219 4.54845 30.7296 4.1936C30.3543 3.83876 30.1666 3.39098 30.1666 2.85026C30.1666 2.30955 30.3543 1.87021 30.7296 1.53227C31.1219 1.17742 31.6166 1 32.2137 1C32.8108 1 33.2969 1.17742 33.6722 1.53227C34.0646 1.87021 34.2608 2.30955 34.2608 2.85026C34.2608 3.39098 34.0646 3.83876 33.6722 4.1936C33.2969 4.54845 32.8108 4.72587 32.2137 4.72587ZM30.5761 19.2492V6.67752H33.8513V19.2492H30.5761Z" stroke="url(#paint12_linear_567_3)" stroke-width="0.8" mask="url(#path-1-outside-1_567_3)"></path><path d="M42.0806 19.5533C40.8523 19.5533 39.7435 19.2745 38.7541 18.7169C37.7817 18.1593 37.0056 17.3905 36.4256 16.4104C35.8626 15.4135 35.5812 14.2644 35.5812 12.9633C35.5812 11.6622 35.8712 10.5217 36.4512 9.54163C37.0312 8.54468 37.8073 7.7674 38.7797 7.20979C39.7691 6.65217 40.8779 6.37337 42.1062 6.37337C43.3173 6.37337 44.4091 6.65217 45.3815 7.20979C46.3709 7.7674 47.1471 8.54468 47.71 9.54163C48.29 10.5217 48.58 11.6622 48.58 12.9633C48.58 14.2644 48.29 15.4135 47.71 16.4104C47.1471 17.3905 46.3709 18.1593 45.3815 18.7169C44.3921 19.2745 43.2918 19.5533 42.0806 19.5533ZM42.0806 16.7399C42.9335 16.7399 43.6756 16.4273 44.3068 15.8021C44.9379 15.16 45.2535 14.2138 45.2535 12.9633C45.2535 11.7129 44.9379 10.7751 44.3068 10.1499C43.6756 9.50783 42.942 9.18678 42.1062 9.18678C41.2362 9.18678 40.4856 9.50783 39.8544 10.1499C39.2403 10.7751 38.9332 11.7129 38.9332 12.9633C38.9332 14.2138 39.2403 15.16 39.8544 15.8021C40.4856 16.4273 41.2276 16.7399 42.0806 16.7399Z" stroke="url(#paint13_linear_567_3)" stroke-width="0.8" mask="url(#path-1-outside-1_567_3)"></path><path d="M7.57619 40.6958C6.2456 40.6958 5.17942 40.3748 4.37765 39.7327C3.57589 39.0906 3.175 37.95 3.175 36.311V30.8362H1V28.1242H3.175L3.55883 24.7532H6.4503V28.1242H9.87913V30.8362H6.4503V36.3363C6.4503 36.9446 6.57824 37.3671 6.83413 37.6036C7.10707 37.8233 7.56766 37.9331 8.21589 37.9331H9.80237V40.6958H7.57619Z" stroke="url(#paint14_linear_567_3)" stroke-width="0.8" mask="url(#path-1-outside-1_567_3)"></path><path d="M11.4118 40.6958V22.4467H14.6871V30.0505C15.1136 29.3577 15.6851 28.817 16.4015 28.4283C17.1351 28.0228 17.971 27.82 18.9092 27.82C20.4786 27.82 21.6898 28.3101 22.5427 29.2901C23.4127 30.2702 23.8477 31.7064 23.8477 33.5989V40.6958H20.598V33.9031C20.598 32.8217 20.3763 31.9937 19.9327 31.4192C19.5063 30.8447 18.8239 30.5574 17.8857 30.5574C16.9645 30.5574 16.1968 30.8785 15.5827 31.5206C14.9857 32.1627 14.6871 33.0582 14.6871 34.2073V40.6958H11.4118Z" stroke="url(#paint15_linear_567_3)" stroke-width="0.8" mask="url(#path-1-outside-1_567_3)"></path><path d="M31.8671 41C30.5876 41 29.4532 40.7296 28.4638 40.1889C27.4744 39.6482 26.6982 38.8878 26.1353 37.9078C25.5723 36.9277 25.2909 35.7956 25.2909 34.5114C25.2909 33.2103 25.5638 32.0528 26.1097 31.039C26.6726 30.0251 27.4403 29.2394 28.4126 28.6818C29.4021 28.1073 30.5621 27.82 31.8926 27.82C33.1379 27.82 34.2382 28.0904 35.1935 28.6311C36.1488 29.1718 36.8909 29.9153 37.4197 30.8616C37.9656 31.7909 38.2385 32.8301 38.2385 33.9791C38.2385 34.165 38.23 34.3593 38.213 34.5621C38.213 34.7649 38.2044 34.9761 38.1874 35.1958H28.5406C28.6088 36.1758 28.95 36.9446 29.5641 37.5022C30.1953 38.0599 30.9544 38.3387 31.8415 38.3387C32.5068 38.3387 33.0612 38.195 33.5047 37.9078C33.9653 37.6036 34.3065 37.215 34.5282 36.7419H37.8547C37.6159 37.536 37.215 38.2626 36.6521 38.9216C36.1062 39.5637 35.4238 40.0706 34.605 40.4424C33.8032 40.8141 32.8906 41 31.8671 41ZM31.8926 30.456C31.0909 30.456 30.3829 30.6841 29.7688 31.1404C29.1547 31.5797 28.7623 32.2556 28.5918 33.1681H34.9121C34.8609 32.3401 34.5538 31.6811 33.9909 31.1911C33.4279 30.701 32.7285 30.456 31.8926 30.456Z" stroke="url(#paint16_linear_567_3)" stroke-width="0.8" mask="url(#path-1-outside-1_567_3)"></path><path d="M39.7139 40.6958V28.1242H42.6053L42.8868 29.8224C43.2962 29.2141 43.8336 28.7325 44.4989 28.3777C45.1812 28.0059 45.9659 27.82 46.853 27.82C48.8148 27.82 50.2051 28.572 51.0239 30.0758C51.4845 29.3831 52.0986 28.8339 52.8662 28.4283C53.6509 28.0228 54.5039 27.82 55.4251 27.82C57.0798 27.82 58.3507 28.3101 59.2377 29.2901C60.1248 30.2702 60.5683 31.7064 60.5683 33.5989V40.6958H57.293V33.9031C57.293 32.8217 57.0798 31.9937 56.6533 31.4192C56.2439 30.8447 55.6042 30.5574 54.7342 30.5574C53.8471 30.5574 53.1307 30.8785 52.5848 31.5206C52.0559 32.1627 51.7915 33.0582 51.7915 34.2073V40.6958H48.5162V33.9031C48.5162 32.8217 48.303 31.9937 47.8765 31.4192C47.4501 30.8447 46.7933 30.5574 45.9062 30.5574C45.0362 30.5574 44.3283 30.8785 43.7824 31.5206C43.2536 32.1627 42.9892 33.0582 42.9892 34.2073V40.6958H39.7139Z" stroke="url(#paint17_linear_567_3)" stroke-width="0.8" mask="url(#path-1-outside-1_567_3)"></path><path d="M68.5652 41C67.2858 41 66.1514 40.7296 65.162 40.1889C64.1726 39.6482 63.3964 38.8878 62.8335 37.9078C62.2705 36.9277 61.9891 35.7956 61.9891 34.5114C61.9891 33.2103 62.262 32.0528 62.8079 31.039C63.3708 30.0251 64.1385 29.2394 65.1108 28.6818C66.1002 28.1073 67.2602 27.82 68.5908 27.82C69.8361 27.82 70.9364 28.0904 71.8917 28.6311C72.847 29.1718 73.5891 29.9153 74.1179 30.8616C74.6638 31.7909 74.9367 32.8301 74.9367 33.9791C74.9367 34.165 74.9282 34.3593 74.9111 34.5621C74.9111 34.7649 74.9026 34.9761 74.8856 35.1958H65.2388C65.307 36.1758 65.6482 36.9446 66.2623 37.5022C66.8935 38.0599 67.6526 38.3387 68.5397 38.3387C69.205 38.3387 69.7594 38.195 70.2029 37.9078C70.6635 37.6036 71.0047 37.215 71.2264 36.7419H74.5529C74.3141 37.536 73.9132 38.2626 73.3503 38.9216C72.8044 39.5637 72.122 40.0706 71.3032 40.4424C70.5014 40.8141 69.5888 41 68.5652 41ZM68.5908 30.456C67.7891 30.456 67.0811 30.6841 66.467 31.1404C65.8529 31.5797 65.4605 32.2556 65.29 33.1681H71.6103C71.5591 32.3401 71.252 31.6811 70.6891 31.1911C70.1261 30.701 69.4267 30.456 68.5908 30.456Z" stroke="url(#paint18_linear_567_3)" stroke-width="0.8" mask="url(#path-1-outside-1_567_3)"></path><path d="M77.8194 40.8733C77.2224 40.8733 76.7276 40.6874 76.3353 40.3157C75.96 39.9439 75.7723 39.4961 75.7723 38.9723C75.7723 38.4316 75.96 37.9754 76.3353 37.6036C76.7276 37.2319 77.2224 37.046 77.8194 37.046C78.4165 37.046 78.9026 37.2319 79.2779 37.6036C79.6703 37.9754 79.8665 38.4316 79.8665 38.9723C79.8665 39.4961 79.6703 39.9439 79.2779 40.3157C78.9026 40.6874 78.4165 40.8733 77.8194 40.8733Z" stroke="url(#paint19_linear_567_3)" stroke-width="0.8" mask="url(#path-1-outside-1_567_3)"></path><path d="M61.4907 15.1343C63.3008 15.1343 64.5039 14.1997 64.5039 12.814V12.8032C64.5039 11.7505 63.752 11.0845 62.6025 10.9771V10.9448C63.5103 10.7568 64.2192 10.1284 64.2192 9.16162V9.15088C64.2192 7.93164 63.145 7.11523 61.4746 7.11523C59.8472 7.11523 58.7568 7.99609 58.6494 9.33887L58.644 9.40332H60.1318L60.1372 9.35498C60.2017 8.75342 60.7173 8.36133 61.4746 8.36133C62.2373 8.36133 62.6831 8.7373 62.6831 9.36572V9.37646C62.6831 10.0049 62.1567 10.4346 61.3457 10.4346H60.481V11.5894H61.3672C62.3018 11.5894 62.855 11.9976 62.855 12.7388V12.7495C62.855 13.3833 62.3179 13.8291 61.4854 13.8291C60.6475 13.8291 60.0996 13.4155 60.0298 12.8623L60.019 12.8032H58.4722L58.4775 12.873C58.585 14.2104 59.7344 15.1343 61.4907 15.1343ZM66.118 15.0913C66.6014 15.0913 66.9881 14.7046 66.9881 14.2212C66.9881 13.7324 66.6014 13.3511 66.118 13.3511C65.6293 13.3511 65.2479 13.7324 65.2479 14.2212C65.2479 14.7046 65.6293 15.0913 66.118 15.0913ZM70.7829 15.1343C72.7487 15.1343 73.9411 13.5928 73.9411 11.1274V11.1167C73.9411 8.65137 72.7487 7.11523 70.7829 7.11523C68.8171 7.11523 67.6247 8.65137 67.6247 11.1167V11.1274C67.6247 13.5928 68.8171 15.1343 70.7829 15.1343ZM70.7829 13.8345C69.8161 13.8345 69.2629 12.8301 69.2629 11.1274V11.1167C69.2629 9.41406 69.8161 8.41504 70.7829 8.41504C71.7497 8.41504 72.3029 9.41406 72.3029 11.1167V11.1274C72.3029 12.8301 71.7497 13.8345 70.7829 13.8345Z" fill="#60606B"></path><rect x="55.0586" y="4" width="23" height="14" rx="3" stroke="#60606B" stroke-width="2"></rect><defs><linearGradient id="paint0_linear_567_3" x1="1" y1="41" x2="79.7332" y2="41" gradientUnits="userSpaceOnUse"><stop stop-color="#0F0F19"></stop><stop offset="1" stop-color="#303050"></stop></linearGradient><linearGradient id="paint1_linear_567_3" x1="1" y1="41" x2="79.7332" y2="41" gradientUnits="userSpaceOnUse"><stop stop-color="#0F0F19"></stop><stop offset="1" stop-color="#303050"></stop></linearGradient><linearGradient id="paint2_linear_567_3" x1="1" y1="41" x2="79.7332" y2="41" gradientUnits="userSpaceOnUse"><stop stop-color="#0F0F19"></stop><stop offset="1" stop-color="#303050"></stop></linearGradient><linearGradient id="paint3_linear_567_3" x1="1" y1="41" x2="79.7332" y2="41" gradientUnits="userSpaceOnUse"><stop stop-color="#0F0F19"></stop><stop offset="1" stop-color="#303050"></stop></linearGradient><linearGradient id="paint4_linear_567_3" x1="1" y1="41" x2="79.7332" y2="41" gradientUnits="userSpaceOnUse"><stop stop-color="#0F0F19"></stop><stop offset="1" stop-color="#303050"></stop></linearGradient><linearGradient id="paint5_linear_567_3" x1="1" y1="41" x2="79.7332" y2="41" gradientUnits="userSpaceOnUse"><stop stop-color="#0F0F19"></stop><stop offset="1" stop-color="#303050"></stop></linearGradient><linearGradient id="paint6_linear_567_3" x1="1" y1="41" x2="79.7332" y2="41" gradientUnits="userSpaceOnUse"><stop stop-color="#0F0F19"></stop><stop offset="1" stop-color="#303050"></stop></linearGradient><linearGradient id="paint7_linear_567_3" x1="1" y1="41" x2="79.7332" y2="41" gradientUnits="userSpaceOnUse"><stop stop-color="#0F0F19"></stop><stop offset="1" stop-color="#303050"></stop></linearGradient><linearGradient id="paint8_linear_567_3" x1="1" y1="41" x2="79.7332" y2="41" gradientUnits="userSpaceOnUse"><stop stop-color="#0F0F19"></stop><stop offset="1" stop-color="#303050"></stop></linearGradient><linearGradient id="paint9_linear_567_3" x1="1" y1="41" x2="79.7332" y2="41" gradientUnits="userSpaceOnUse"><stop stop-color="#0F0F19"></stop><stop offset="1" stop-color="#303050"></stop></linearGradient><linearGradient id="paint10_linear_567_3" x1="1" y1="40.9688" x2="79.7332" y2="40.9688" gradientUnits="userSpaceOnUse"><stop stop-color="#0F0F19"></stop><stop offset="1" stop-color="#303050"></stop></linearGradient><linearGradient id="paint11_linear_567_3" x1="1" y1="40.9688" x2="79.7332" y2="40.9688" gradientUnits="userSpaceOnUse"><stop stop-color="#0F0F19"></stop><stop offset="1" stop-color="#303050"></stop></linearGradient><linearGradient id="paint12_linear_567_3" x1="1" y1="40.9688" x2="79.7332" y2="40.9688" gradientUnits="userSpaceOnUse"><stop stop-color="#0F0F19"></stop><stop offset="1" stop-color="#303050"></stop></linearGradient><linearGradient id="paint13_linear_567_3" x1="1" y1="40.9688" x2="79.7332" y2="40.9688" gradientUnits="userSpaceOnUse"><stop stop-color="#0F0F19"></stop><stop offset="1" stop-color="#303050"></stop></linearGradient><linearGradient id="paint14_linear_567_3" x1="1" y1="40.9688" x2="79.7332" y2="40.9688" gradientUnits="userSpaceOnUse"><stop stop-color="#0F0F19"></stop><stop offset="1" stop-color="#303050"></stop></linearGradient><linearGradient id="paint15_linear_567_3" x1="1" y1="40.9688" x2="79.7332" y2="40.9688" gradientUnits="userSpaceOnUse"><stop stop-color="#0F0F19"></stop><stop offset="1" stop-color="#303050"></stop></linearGradient><linearGradient id="paint16_linear_567_3" x1="1" y1="40.9688" x2="79.7332" y2="40.9688" gradientUnits="userSpaceOnUse"><stop stop-color="#0F0F19"></stop><stop offset="1" stop-color="#303050"></stop></linearGradient><linearGradient id="paint17_linear_567_3" x1="1" y1="40.9688" x2="79.7332" y2="40.9688" gradientUnits="userSpaceOnUse"><stop stop-color="#0F0F19"></stop><stop offset="1" stop-color="#303050"></stop></linearGradient><linearGradient id="paint18_linear_567_3" x1="1" y1="40.9688" x2="79.7332" y2="40.9688" gradientUnits="userSpaceOnUse"><stop stop-color="#0F0F19"></stop><stop offset="1" stop-color="#303050"></stop></linearGradient><linearGradient id="paint19_linear_567_3" x1="1" y1="40.9688" x2="79.7332" y2="40.9688" gradientUnits="userSpaceOnUse"><stop stop-color="#0F0F19"></stop><stop offset="1" stop-color="#303050"></stop></linearGradient></defs></svg> 